<mxfile host="app.diagrams.net" agent="Mozilla/5.0 (Macintosh; Intel Mac OS X 10.15; rv:141.0) Gecko/20100101 Firefox/141.0" version="28.0.7">
  <diagram name="Page-1" id="ojW7OteOCrZsB84ZvSOL">
    <mxGraphModel dx="1376" dy="799" grid="1" gridSize="10" guides="1" tooltips="1" connect="1" arrows="1" fold="1" page="1" pageScale="1" pageWidth="850" pageHeight="1100" math="0" shadow="0">
      <root>
        <mxCell id="0" />
        <mxCell id="1" parent="0" />
        <mxCell id="CjP13xM7e6sfv52TlpYq-1" value="&lt;b&gt;MVP&lt;/b&gt;" style="rounded=0;whiteSpace=wrap;html=1;fillColor=#d5e8d4;strokeColor=#82b366;verticalAlign=top;fontSize=22;" vertex="1" parent="1">
          <mxGeometry x="40" y="40" width="770" height="240" as="geometry" />
        </mxCell>
        <mxCell id="CjP13xM7e6sfv52TlpYq-2" value="&lt;b&gt;&lt;font style=&quot;font-size: 22px;&quot;&gt;Stretch goals&lt;/font&gt;&lt;/b&gt;" style="rounded=0;whiteSpace=wrap;html=1;fillColor=#dae8fc;strokeColor=#6c8ebf;verticalAlign=bottom;" vertex="1" parent="1">
          <mxGeometry x="40" y="280" width="770" height="160" as="geometry" />
        </mxCell>
        <mxCell id="CjP13xM7e6sfv52TlpYq-5" value="" style="edgeStyle=orthogonalEdgeStyle;rounded=0;orthogonalLoop=1;jettySize=auto;html=1;" edge="1" parent="1" source="CjP13xM7e6sfv52TlpYq-3" target="CjP13xM7e6sfv52TlpYq-4">
          <mxGeometry relative="1" as="geometry" />
        </mxCell>
        <mxCell id="CjP13xM7e6sfv52TlpYq-13" style="edgeStyle=orthogonalEdgeStyle;rounded=0;orthogonalLoop=1;jettySize=auto;html=1;" edge="1" parent="1" source="CjP13xM7e6sfv52TlpYq-3" target="CjP13xM7e6sfv52TlpYq-12">
          <mxGeometry relative="1" as="geometry" />
        </mxCell>
        <mxCell id="CjP13xM7e6sfv52TlpYq-14" style="edgeStyle=orthogonalEdgeStyle;rounded=0;orthogonalLoop=1;jettySize=auto;html=1;" edge="1" parent="1" source="CjP13xM7e6sfv52TlpYq-3" target="CjP13xM7e6sfv52TlpYq-10">
          <mxGeometry relative="1" as="geometry">
            <Array as="points">
              <mxPoint x="140" y="200" />
              <mxPoint x="290" y="200" />
            </Array>
          </mxGeometry>
        </mxCell>
        <mxCell id="CjP13xM7e6sfv52TlpYq-3" value="POST request to the &#39;/keywords&#39; API with large text string in the body" style="rounded=1;whiteSpace=wrap;html=1;" vertex="1" parent="1">
          <mxGeometry x="80" y="100" width="120" height="60" as="geometry" />
        </mxCell>
        <mxCell id="CjP13xM7e6sfv52TlpYq-7" value="" style="edgeStyle=orthogonalEdgeStyle;rounded=0;orthogonalLoop=1;jettySize=auto;html=1;" edge="1" parent="1" source="CjP13xM7e6sfv52TlpYq-4" target="CjP13xM7e6sfv52TlpYq-6">
          <mxGeometry relative="1" as="geometry" />
        </mxCell>
        <mxCell id="CjP13xM7e6sfv52TlpYq-4" value="API receives text string, sends it to OpenAI API for analysis" style="whiteSpace=wrap;html=1;rounded=1;" vertex="1" parent="1">
          <mxGeometry x="250" y="100" width="120" height="60" as="geometry" />
        </mxCell>
        <mxCell id="CjP13xM7e6sfv52TlpYq-9" value="" style="edgeStyle=orthogonalEdgeStyle;rounded=0;orthogonalLoop=1;jettySize=auto;html=1;" edge="1" parent="1" source="CjP13xM7e6sfv52TlpYq-6" target="CjP13xM7e6sfv52TlpYq-8">
          <mxGeometry relative="1" as="geometry" />
        </mxCell>
        <mxCell id="CjP13xM7e6sfv52TlpYq-6" value="OpenAI API returns keywords using structured output" style="whiteSpace=wrap;html=1;rounded=1;" vertex="1" parent="1">
          <mxGeometry x="410" y="100" width="120" height="60" as="geometry" />
        </mxCell>
        <mxCell id="CjP13xM7e6sfv52TlpYq-8" value="Keywords are sent back as the result of the POST request" style="whiteSpace=wrap;html=1;rounded=1;" vertex="1" parent="1">
          <mxGeometry x="590" y="100" width="120" height="60" as="geometry" />
        </mxCell>
        <mxCell id="CjP13xM7e6sfv52TlpYq-10" value="Rate limiting checks how many times the API is called per hour" style="whiteSpace=wrap;html=1;rounded=1;" vertex="1" parent="1">
          <mxGeometry x="230" y="320" width="120" height="60" as="geometry" />
        </mxCell>
        <mxCell id="CjP13xM7e6sfv52TlpYq-12" value="Simple bearer token header" style="rounded=1;whiteSpace=wrap;html=1;" vertex="1" parent="1">
          <mxGeometry x="80" y="320" width="120" height="60" as="geometry" />
        </mxCell>
      </root>
    </mxGraphModel>
  </diagram>
</mxfile>
